<svg xmlns="http://www.w3.org/2000/svg" viewBox="0 0 512 512"><path fill="currentColor" d="M124.9 337.3c-2.4-7.4-4.8-14.8-13.8-16.1-9.9-1.5-13.1 3.2-13.8 11.2 13.9-2.2 13.4 9 13.4 9s0 3.7-5.9 5.2c-5.9 1.5-16.3.7-17 11.9-.7 11.2 5.9 14.1 14.1 14.1 8.2 0 11.9-3.7 15.6-3s7.4 3 7.4 5.9-2.2 8.9-6.7 8.9c-4.5 0-14.9-3-22.3-3-7.4 0-14.1 3-18.6 10.4-4.5 7.4.7 18.6 15.6 18.6s28.2-5.9 34.9-11.2c6.7-5.2 12.6-11.2 12.6-11.2s-2.2 4.5 2.2 6.7c4.5 2.2 13.4 5.2 18.6 5.2 5.2 0 13.4-3 17.8-11.9 4.5-8.9 1.5-17.1-5.9-19.3-7.4-2.2-11.9 2.2-15.6 6.7 0 0 1.5-9.7 5.2-16.3 3.7-6.7 11.2-12.6 16.3-11.9 5.2.7 5.9 5.2 6.7 8.2 2.2-6.7 9.7-14.1 17.1-13.4 7.4.7 10.4 8.2 23 8.2 12.6 0 11.9-10.4 12.6-18.6.7-8.2 3.7-19.3 20.8-19.3 17.1 0 18.6 8.2 25.3 5.9 6.7-2.2 13.4-8.2 18.6-20.1 5.2-11.9-7.4-18.6-11.9-20.8-4.5-2.2-12.6-3.7-15.6-8.9-3-5.2.7-11.2.7-11.2s11.2 6.7 14.9 3.7c3.7-3 2.2-8.9.7-12.6-1.5-3.7.7-18.6 1.5-21.5.7-3 5.9-4.5 8.9-2.2 3 2.2 6.7-5.2 5.2-10.4-1.5-5.2-8.2-16.3-8.2-22.3 0-5.9 11.9-11.2 21.5-8.2 9.7 3 21.5 13.4 20.1 27.5-1.5 14.1-8.2 26-6.7 34.9 1.5 8.9 5.9 11.2 14.9 11.2 8.9 0 20.1-2.2 29-2.2 8.9 0 20.8-1.5 35.7 3 14.9 4.5 22.3 26 5.9 32.7-16.3 6.7-30.5 4.5-26 13.4 4.5 8.9 25.3 15.6 24.5 26.8-.7 11.2-12.6 30.5-25.3 33.4-12.6 3-23.8-.7-34.9.7-11.2 1.5-23 4.5-24.5 11.9-1.5 7.4 3 26 16.3 43.1 13.4 17.1 36.4 39.4 33.4 48.3-3 8.9-32.7 17.8-82.5 14.9-49.8-3-108.5-23-149.4-43.1-40.9-20.1-57.2-46.1-57.2-46.1s14.9 5.2 23 4.5c8.2-.7 17.1-3 21.5-12.6 4.6-9.8-10.3-25.4-12.7-31.9z"/></svg>
